<mxfile host="drawio-plugin" modified="2024-01-08T21:45:22.883Z" agent="5.0 (Windows NT 6.2; Win64; x64) AppleWebKit/537.36 (KHTML, like Gecko) Chrome/104.0.5112.102 Safari/537.36" etag="NQopHbdWgjvTW-_5JMYs" version="20.5.3" type="embed"><diagram id="23iRSUPoRavnBvh4doch" name="Page-1"><mxGraphModel dx="3915" dy="2108" grid="1" gridSize="10" guides="1" tooltips="1" connect="1" arrows="1" fold="1" page="1" pageScale="1" pageWidth="827" pageHeight="1169" math="0" shadow="0"><root><mxCell id="0"/><mxCell id="1" parent="0"/><mxCell id="172" style="edgeStyle=orthogonalEdgeStyle;rounded=0;orthogonalLoop=1;jettySize=auto;html=1;entryX=0.5;entryY=0;entryDx=0;entryDy=0;fontColor=#FFFFFF;" edge="1" parent="1" source="173" target="175"><mxGeometry relative="1" as="geometry"/></mxCell><mxCell id="173" value="Початок" style="ellipse;whiteSpace=wrap;html=1;fontColor=#FFFFFF;labelBackgroundColor=none;" vertex="1" parent="1"><mxGeometry x="80" y="130" width="120" height="80" as="geometry"/></mxCell><mxCell id="174" value="" style="edgeStyle=orthogonalEdgeStyle;rounded=0;orthogonalLoop=1;jettySize=auto;html=1;fontColor=#FFFFFF;" edge="1" parent="1" source="175" target="177"><mxGeometry relative="1" as="geometry"/></mxCell><mxCell id="175" value="Введення:&lt;br&gt;int [] array;" style="shape=parallelogram;perimeter=parallelogramPerimeter;whiteSpace=wrap;html=1;fixedSize=1;fontColor=#FFFFFF;labelBackgroundColor=none;" vertex="1" parent="1"><mxGeometry x="40" y="240" width="200" height="90" as="geometry"/></mxCell><mxCell id="176" style="edgeStyle=orthogonalEdgeStyle;rounded=0;orthogonalLoop=1;jettySize=auto;html=1;entryX=0.5;entryY=0;entryDx=0;entryDy=0;fontColor=#FFFFFF;" edge="1" parent="1" source="177" target="180"><mxGeometry relative="1" as="geometry"/></mxCell><mxCell id="177" value="array = new int []{1&lt;span style=&quot;font-family: &amp;quot;JetBrains Mono&amp;quot;, monospace;&quot;&gt;,&lt;/span&gt;&lt;span style=&quot;font-family: &amp;quot;JetBrains Mono&amp;quot;, monospace;&quot;&gt;8&lt;/span&gt;&lt;span style=&quot;font-family: &amp;quot;JetBrains Mono&amp;quot;, monospace;&quot;&gt;,&lt;/span&gt;&lt;span style=&quot;font-family: &amp;quot;JetBrains Mono&amp;quot;, monospace;&quot;&gt;-&lt;/span&gt;&lt;span style=&quot;font-family: &amp;quot;JetBrains Mono&amp;quot;, monospace;&quot;&gt;5&lt;/span&gt;&lt;span style=&quot;font-family: &amp;quot;JetBrains Mono&amp;quot;, monospace;&quot;&gt;,&lt;/span&gt;&lt;span style=&quot;font-family: &amp;quot;JetBrains Mono&amp;quot;, monospace;&quot;&gt;2&lt;/span&gt;&lt;span style=&quot;font-family: &amp;quot;JetBrains Mono&amp;quot;, monospace;&quot;&gt;,&lt;/span&gt;&lt;span style=&quot;font-family: &amp;quot;JetBrains Mono&amp;quot;, monospace;&quot;&gt;11&lt;/span&gt;&lt;span style=&quot;font-family: &amp;quot;JetBrains Mono&amp;quot;, monospace;&quot;&gt;,&lt;/span&gt;&lt;span style=&quot;font-family: &amp;quot;JetBrains Mono&amp;quot;, monospace;&quot;&gt;0&lt;/span&gt;&lt;span style=&quot;font-family: &amp;quot;JetBrains Mono&amp;quot;, monospace;&quot;&gt;,&lt;/span&gt;&lt;span style=&quot;font-family: &amp;quot;JetBrains Mono&amp;quot;, monospace;&quot;&gt;32&lt;/span&gt;&lt;span style=&quot;font-family: &amp;quot;JetBrains Mono&amp;quot;, monospace;&quot;&gt;,&lt;/span&gt;&lt;span style=&quot;font-family: &amp;quot;JetBrains Mono&amp;quot;, monospace;&quot;&gt;-&lt;/span&gt;&lt;span style=&quot;font-family: &amp;quot;JetBrains Mono&amp;quot;, monospace;&quot;&gt;1&lt;/span&gt;&lt;span style=&quot;&quot;&gt;};&lt;/span&gt;" style="whiteSpace=wrap;html=1;fontColor=#FFFFFF;labelBackgroundColor=none;" vertex="1" parent="1"><mxGeometry x="55" y="380" width="170" height="80" as="geometry"/></mxCell><mxCell id="178" style="edgeStyle=orthogonalEdgeStyle;rounded=0;orthogonalLoop=1;jettySize=auto;html=1;entryX=0;entryY=0.5;entryDx=0;entryDy=0;fontColor=#FFFFFF;labelBackgroundColor=none;" edge="1" parent="1" source="180" target="181"><mxGeometry relative="1" as="geometry"/></mxCell><mxCell id="179" style="edgeStyle=orthogonalEdgeStyle;rounded=0;orthogonalLoop=1;jettySize=auto;html=1;fontColor=#FFFFFF;labelBackgroundColor=none;" edge="1" parent="1" source="180"><mxGeometry relative="1" as="geometry"><mxPoint x="140" y="660" as="targetPoint"/></mxGeometry></mxCell><mxCell id="180" value="mergeSort(array);" style="ellipse;whiteSpace=wrap;html=1;fontColor=#FFFFFF;labelBackgroundColor=none;" vertex="1" parent="1"><mxGeometry x="80" y="500" width="120" height="80" as="geometry"/></mxCell><mxCell id="181" value="Виведення:&lt;br&gt;Arrays.toString(array);" style="shape=parallelogram;perimeter=parallelogramPerimeter;whiteSpace=wrap;html=1;fixedSize=1;fontColor=#FFFFFF;labelBackgroundColor=none;" vertex="1" parent="1"><mxGeometry x="380" y="505" width="160" height="70" as="geometry"/></mxCell><mxCell id="182" style="edgeStyle=orthogonalEdgeStyle;rounded=0;orthogonalLoop=1;jettySize=auto;html=1;entryX=0.5;entryY=0;entryDx=0;entryDy=0;fontColor=#FFFFFF;" edge="1" parent="1" source="183" target="185"><mxGeometry relative="1" as="geometry"/></mxCell><mxCell id="183" value="Введення:&lt;br&gt;&lt;div style=&quot;font-family: &amp;quot;JetBrains Mono&amp;quot;, monospace;&quot;&gt;&lt;pre&gt;int arr;&lt;/pre&gt;&lt;/div&gt;" style="shape=parallelogram;perimeter=parallelogramPerimeter;whiteSpace=wrap;html=1;fixedSize=1;fontColor=#FFFFFF;labelBackgroundColor=none;" vertex="1" parent="1"><mxGeometry x="45" y="660" width="190" height="80" as="geometry"/></mxCell><mxCell id="184" style="edgeStyle=orthogonalEdgeStyle;rounded=0;orthogonalLoop=1;jettySize=auto;html=1;entryX=0.5;entryY=0;entryDx=0;entryDy=0;fontColor=#FFFFFF;" edge="1" parent="1" source="185" target="187"><mxGeometry relative="1" as="geometry"/></mxCell><mxCell id="185" value="&lt;div style=&quot;font-family: &amp;quot;JetBrains Mono&amp;quot;, monospace;&quot;&gt;&lt;pre&gt;int arr = array.&lt;span style=&quot;&quot;&gt;length&lt;/span&gt;&lt;span style=&quot;&quot;&gt;; &lt;br&gt;&lt;/span&gt;&lt;span style=&quot;&quot;&gt;if &lt;/span&gt;(arr == &lt;span style=&quot;&quot;&gt;1&lt;/span&gt;) &lt;span style=&quot;&quot;&gt;return;&lt;br&gt;&lt;/span&gt;&lt;span style=&quot;&quot;&gt;int &lt;/span&gt;mid = arr / &lt;span style=&quot;&quot;&gt;2&lt;/span&gt;&lt;span style=&quot;&quot;&gt;;&lt;/span&gt;&lt;/pre&gt;&lt;/div&gt;" style="whiteSpace=wrap;html=1;fontColor=#FFFFFF;labelBackgroundColor=none;" vertex="1" parent="1"><mxGeometry x="30" y="780" width="220" height="100" as="geometry"/></mxCell><mxCell id="186" style="edgeStyle=orthogonalEdgeStyle;rounded=0;orthogonalLoop=1;jettySize=auto;html=1;entryX=0.5;entryY=0;entryDx=0;entryDy=0;fontColor=#FFFFFF;" edge="1" parent="1" source="187" target="189"><mxGeometry relative="1" as="geometry"/></mxCell><mxCell id="187" value="&lt;div style=&quot;font-family: &amp;quot;JetBrains Mono&amp;quot;, monospace;&quot;&gt;&lt;pre&gt;&lt;div style=&quot;font-family: &amp;quot;JetBrains Mono&amp;quot;, monospace;&quot;&gt;&lt;pre&gt;int[] part1 = &lt;span style=&quot;&quot;&gt;new int&lt;/span&gt;[mid]&lt;span style=&quot;&quot;&gt;;&lt;br&gt;&lt;/span&gt;&lt;span style=&quot;&quot;&gt;int&lt;/span&gt;[] part2 = &lt;span style=&quot;&quot;&gt;new int&lt;/span&gt;[arr - mid]&lt;span style=&quot;&quot;&gt;;&lt;br&gt;&lt;/span&gt;&lt;/pre&gt;&lt;/div&gt;&lt;/pre&gt;&lt;/div&gt;" style="whiteSpace=wrap;html=1;fontColor=#FFFFFF;labelBackgroundColor=none;" vertex="1" parent="1"><mxGeometry x="30" y="920" width="220" height="100" as="geometry"/></mxCell><mxCell id="188" style="edgeStyle=orthogonalEdgeStyle;rounded=0;orthogonalLoop=1;jettySize=auto;html=1;entryX=0.5;entryY=0;entryDx=0;entryDy=0;fontColor=#FFFFFF;" edge="1" parent="1" source="189" target="192"><mxGeometry relative="1" as="geometry"/></mxCell><mxCell id="189" value="&lt;div style=&quot;&quot;&gt;&lt;pre style=&quot;&quot;&gt;&lt;div style=&quot;&quot;&gt;&lt;pre style=&quot;&quot;&gt;&lt;div style=&quot;&quot;&gt;&lt;pre style=&quot;&quot;&gt;&lt;div style=&quot;&quot;&gt;&lt;font style=&quot;&quot; face=&quot;Helvetica&quot;&gt;&lt;span style=&quot;white-space: normal;&quot;&gt;&lt;font&gt;for&lt;/font&gt;&lt;font&gt; (&lt;/font&gt;&lt;/span&gt;&lt;span style=&quot;white-space: normal;&quot;&gt;int &lt;/span&gt;&lt;span style=&quot;white-space: normal;&quot;&gt;i = &lt;/span&gt;&lt;span style=&quot;white-space: normal;&quot;&gt;0&lt;/span&gt;&lt;span style=&quot;white-space: normal;&quot;&gt;; &lt;/span&gt;&lt;span style=&quot;white-space: normal;&quot;&gt;i &amp;lt; mid&lt;/span&gt;&lt;span style=&quot;white-space: normal;&quot;&gt;; &lt;/span&gt;&lt;span style=&quot;white-space: normal;&quot;&gt;i++) {&lt;/span&gt;&lt;/font&gt;&lt;/div&gt;&lt;div style=&quot;&quot;&gt;&lt;font style=&quot;&quot; face=&quot;rfCB8Jlhh6Nuw_vFRjuo&quot;&gt;&lt;span style=&quot;white-space: normal;&quot;&gt;part1[i] = array[i]&lt;/span&gt;&lt;span style=&quot;white-space: normal;&quot;&gt;;&lt;/span&gt;&lt;span style=&quot;white-space: normal;&quot;&gt;&lt;font&gt;}&lt;/font&gt;&lt;/span&gt;&lt;/font&gt;&lt;/div&gt;&lt;font style=&quot;&quot; face=&quot;rfCB8Jlhh6Nuw_vFRjuo&quot;&gt;&lt;span style=&quot;&quot;&gt;for &lt;/span&gt;(&lt;span style=&quot;&quot;&gt;int &lt;/span&gt;i = mid&lt;span style=&quot;&quot;&gt;; &lt;/span&gt;i &amp;lt; arr&lt;span style=&quot;&quot;&gt;; &lt;/span&gt;i++) {&lt;/font&gt;&lt;/pre&gt;&lt;pre style=&quot;&quot;&gt;&lt;font face=&quot;rfCB8Jlhh6Nuw_vFRjuo&quot;&gt;part2[i - mid] = array[i]&lt;span style=&quot;&quot;&gt;;&lt;/span&gt;&lt;/font&gt;}&lt;/pre&gt;&lt;/div&gt;&lt;/pre&gt;&lt;/div&gt;&lt;/pre&gt;&lt;/div&gt;" style="whiteSpace=wrap;html=1;fontColor=#FFFFFF;labelBackgroundColor=none;" vertex="1" parent="1"><mxGeometry x="30" y="1070" width="220" height="100" as="geometry"/></mxCell><mxCell id="190" style="edgeStyle=orthogonalEdgeStyle;rounded=0;orthogonalLoop=1;jettySize=auto;html=1;entryX=0.5;entryY=0;entryDx=0;entryDy=0;fontColor=#FFFFFF;" edge="1" parent="1" source="192" target="195"><mxGeometry relative="1" as="geometry"/></mxCell><mxCell id="191" style="edgeStyle=orthogonalEdgeStyle;rounded=0;orthogonalLoop=1;jettySize=auto;html=1;entryX=1;entryY=1;entryDx=0;entryDy=0;fontColor=#FFFFFF;" edge="1" parent="1" source="192" target="180"><mxGeometry relative="1" as="geometry"><Array as="points"><mxPoint x="350" y="1250"/><mxPoint x="350" y="568"/></Array></mxGeometry></mxCell><mxCell id="192" value="&lt;div style=&quot;font-family: &amp;quot;JetBrains Mono&amp;quot;, monospace;&quot;&gt;&lt;pre&gt;mergeSort(part1)&lt;span style=&quot;&quot;&gt;;&lt;/span&gt;&lt;/pre&gt;&lt;/div&gt;" style="ellipse;whiteSpace=wrap;html=1;fontColor=#FFFFFF;labelBackgroundColor=none;" vertex="1" parent="1"><mxGeometry x="65" y="1210" width="150" height="80" as="geometry"/></mxCell><mxCell id="193" style="edgeStyle=orthogonalEdgeStyle;rounded=0;orthogonalLoop=1;jettySize=auto;html=1;entryX=0.5;entryY=0;entryDx=0;entryDy=0;fontColor=#FFFFFF;" edge="1" parent="1" source="195" target="198"><mxGeometry relative="1" as="geometry"/></mxCell><mxCell id="194" style="edgeStyle=orthogonalEdgeStyle;rounded=0;orthogonalLoop=1;jettySize=auto;html=1;entryX=1;entryY=1;entryDx=0;entryDy=0;fontColor=#FFFFFF;" edge="1" parent="1" source="195" target="180"><mxGeometry relative="1" as="geometry"><mxPoint x="380" y="630" as="targetPoint"/><Array as="points"><mxPoint x="370" y="1350"/><mxPoint x="370" y="568"/></Array></mxGeometry></mxCell><mxCell id="195" value="&lt;div style=&quot;font-family: &amp;quot;JetBrains Mono&amp;quot;, monospace;&quot;&gt;&lt;pre&gt;mergeSort(part2)&lt;span style=&quot;&quot;&gt;;&lt;/span&gt;&lt;/pre&gt;&lt;/div&gt;" style="ellipse;whiteSpace=wrap;html=1;fontColor=#FFFFFF;labelBackgroundColor=none;" vertex="1" parent="1"><mxGeometry x="55" y="1310" width="170" height="80" as="geometry"/></mxCell><mxCell id="196" style="edgeStyle=orthogonalEdgeStyle;rounded=0;orthogonalLoop=1;jettySize=auto;html=1;entryX=1;entryY=0.5;entryDx=0;entryDy=0;fontColor=#FFFFFF;" edge="1" parent="1" source="198" target="200"><mxGeometry relative="1" as="geometry"/></mxCell><mxCell id="197" style="edgeStyle=orthogonalEdgeStyle;rounded=0;orthogonalLoop=1;jettySize=auto;html=1;fontColor=#FFFFFF;" edge="1" parent="1" source="198"><mxGeometry relative="1" as="geometry"><mxPoint x="140" y="1570" as="targetPoint"/></mxGeometry></mxCell><mxCell id="198" value="&lt;div style=&quot;font-family: &amp;quot;JetBrains Mono&amp;quot;, monospace;&quot;&gt;&lt;pre&gt;&lt;div style=&quot;font-family: &amp;quot;JetBrains Mono&amp;quot;, monospace;&quot;&gt;&lt;pre&gt;merge(array&lt;span style=&quot;&quot;&gt;, &lt;/span&gt;part1&lt;span style=&quot;&quot;&gt;, &lt;/span&gt;part2)&lt;span style=&quot;&quot;&gt;;&lt;br&gt;&lt;/span&gt;&lt;/pre&gt;&lt;/div&gt;&lt;/pre&gt;&lt;/div&gt;" style="ellipse;whiteSpace=wrap;html=1;fontColor=#FFFFFF;labelBackgroundColor=none;" vertex="1" parent="1"><mxGeometry x="45" y="1420" width="190" height="90" as="geometry"/></mxCell><mxCell id="199" style="edgeStyle=orthogonalEdgeStyle;rounded=0;orthogonalLoop=1;jettySize=auto;html=1;entryX=1;entryY=0.5;entryDx=0;entryDy=0;fontColor=#FFFFFF;" edge="1" parent="1" source="200" target="202"><mxGeometry relative="1" as="geometry"/></mxCell><mxCell id="200" value="Введення:&lt;br&gt;int left, right, i1, i2, idx" style="shape=parallelogram;perimeter=parallelogramPerimeter;whiteSpace=wrap;html=1;fixedSize=1;fontColor=#FFFFFF;labelBackgroundColor=none;" vertex="1" parent="1"><mxGeometry x="-230" y="1425" width="195" height="80" as="geometry"/></mxCell><mxCell id="201" style="edgeStyle=orthogonalEdgeStyle;rounded=0;orthogonalLoop=1;jettySize=auto;html=1;entryX=0.5;entryY=1;entryDx=0;entryDy=0;fontColor=#FFFFFF;" edge="1" parent="1" source="202" target="205"><mxGeometry relative="1" as="geometry"/></mxCell><mxCell id="202" value="&lt;div style=&quot;font-family: &amp;quot;JetBrains Mono&amp;quot;, monospace;&quot;&gt;&lt;pre&gt;int left = part1.&lt;span style=&quot;&quot;&gt;length&lt;/span&gt;&lt;span style=&quot;&quot;&gt;;&lt;br&gt;&lt;/span&gt;&lt;span style=&quot;&quot;&gt;int &lt;/span&gt;right = part2.&lt;span style=&quot;&quot;&gt;length&lt;/span&gt;&lt;span style=&quot;&quot;&gt;;&lt;br&gt;&lt;/span&gt;&lt;span style=&quot;&quot;&gt;&lt;br&gt;&lt;/span&gt;&lt;span style=&quot;&quot;&gt;int &lt;/span&gt;i1 = &lt;span style=&quot;&quot;&gt;0&lt;/span&gt;&lt;span style=&quot;&quot;&gt;;&lt;br&gt;&lt;/span&gt;&lt;span style=&quot;&quot;&gt;int &lt;/span&gt;i2 = &lt;span style=&quot;&quot;&gt;0&lt;/span&gt;&lt;span style=&quot;&quot;&gt;;&lt;br&gt;&lt;/span&gt;&lt;span style=&quot;&quot;&gt;int &lt;/span&gt;idx = &lt;span style=&quot;&quot;&gt;0&lt;/span&gt;&lt;span style=&quot;&quot;&gt;;&lt;/span&gt;&lt;/pre&gt;&lt;/div&gt;" style="rounded=0;whiteSpace=wrap;html=1;fontColor=#FFFFFF;labelBackgroundColor=none;" vertex="1" parent="1"><mxGeometry x="-575.25" y="1410" width="262.5" height="110" as="geometry"/></mxCell><mxCell id="203" style="edgeStyle=orthogonalEdgeStyle;rounded=0;orthogonalLoop=1;jettySize=auto;html=1;entryX=0.5;entryY=1;entryDx=0;entryDy=0;fontColor=#FFFFFF;" edge="1" parent="1" source="205" target="212"><mxGeometry relative="1" as="geometry"/></mxCell><mxCell id="204" style="edgeStyle=orthogonalEdgeStyle;rounded=0;orthogonalLoop=1;jettySize=auto;html=1;entryX=0.5;entryY=1;entryDx=0;entryDy=0;fontColor=#FFFFFF;" edge="1" parent="1" source="205" target="208"><mxGeometry relative="1" as="geometry"/></mxCell><mxCell id="205" value="while(i1&amp;lt;left &amp;amp;&amp;amp; i2 &amp;lt; rigth)" style="shape=hexagon;perimeter=hexagonPerimeter2;whiteSpace=wrap;html=1;fixedSize=1;fontColor=#FFFFFF;labelBackgroundColor=none;" vertex="1" parent="1"><mxGeometry x="-530" y="1280" width="172" height="80" as="geometry"/></mxCell><mxCell id="206" style="edgeStyle=orthogonalEdgeStyle;rounded=0;orthogonalLoop=1;jettySize=auto;html=1;entryX=0.5;entryY=1;entryDx=0;entryDy=0;fontColor=#FFFFFF;" edge="1" parent="1" source="208" target="210"><mxGeometry relative="1" as="geometry"/></mxCell><mxCell id="207" style="edgeStyle=orthogonalEdgeStyle;rounded=0;orthogonalLoop=1;jettySize=auto;html=1;entryX=0.5;entryY=1;entryDx=0;entryDy=0;fontColor=#FFFFFF;" edge="1" parent="1" source="208" target="212"><mxGeometry relative="1" as="geometry"/></mxCell><mxCell id="208" value="&lt;div style=&quot;font-family: &amp;quot;JetBrains Mono&amp;quot;, monospace;&quot;&gt;&lt;pre&gt;i1 &amp;lt; left &amp;amp;&amp;amp; i2 &amp;lt; right&lt;/pre&gt;&lt;/div&gt;" style="rhombus;whiteSpace=wrap;html=1;fontColor=#FFFFFF;labelBackgroundColor=none;" vertex="1" parent="1"><mxGeometry x="-765" y="1140" width="180" height="120" as="geometry"/></mxCell><mxCell id="209" style="edgeStyle=orthogonalEdgeStyle;rounded=0;orthogonalLoop=1;jettySize=auto;html=1;entryX=0;entryY=0.5;entryDx=0;entryDy=0;fontColor=#FFFFFF;" edge="1" parent="1" source="210" target="214"><mxGeometry relative="1" as="geometry"/></mxCell><mxCell id="210" value="&lt;div style=&quot;font-family: &amp;quot;JetBrains Mono&amp;quot;, monospace;&quot;&gt;&lt;pre&gt;arr[idx] = part1[i1]&lt;span style=&quot;&quot;&gt;;&lt;br&gt;&lt;/span&gt;i1++&lt;span style=&quot;&quot;&gt;;&lt;/span&gt;&lt;/pre&gt;&lt;/div&gt;" style="rounded=0;whiteSpace=wrap;html=1;fontColor=#FFFFFF;labelBackgroundColor=none;" vertex="1" parent="1"><mxGeometry x="-770" y="1020" width="190" height="80" as="geometry"/></mxCell><mxCell id="211" style="edgeStyle=orthogonalEdgeStyle;rounded=0;orthogonalLoop=1;jettySize=auto;html=1;entryX=1;entryY=0.5;entryDx=0;entryDy=0;fontColor=#FFFFFF;" edge="1" parent="1" source="212" target="214"><mxGeometry relative="1" as="geometry"/></mxCell><mxCell id="212" value="&lt;div style=&quot;font-family: &amp;quot;JetBrains Mono&amp;quot;, monospace;&quot;&gt;&lt;pre&gt;&lt;div style=&quot;font-family: &amp;quot;JetBrains Mono&amp;quot;, monospace;&quot;&gt;&lt;pre&gt;arr[idx] = part2[i2];&lt;br&gt;i2++&lt;span style=&quot;&quot;&gt;;&lt;/span&gt;&lt;/pre&gt;&lt;/div&gt;&lt;/pre&gt;&lt;/div&gt;" style="rounded=0;whiteSpace=wrap;html=1;fontColor=#FFFFFF;labelBackgroundColor=none;" vertex="1" parent="1"><mxGeometry x="-330" y="1020" width="190" height="80" as="geometry"/></mxCell><mxCell id="213" style="edgeStyle=orthogonalEdgeStyle;rounded=0;orthogonalLoop=1;jettySize=auto;html=1;entryX=0.5;entryY=1;entryDx=0;entryDy=0;fontColor=#FFFFFF;" edge="1" parent="1" source="214" target="217"><mxGeometry relative="1" as="geometry"/></mxCell><mxCell id="214" value="&lt;div style=&quot;font-family: &amp;quot;JetBrains Mono&amp;quot;, monospace;&quot;&gt;&lt;pre&gt;idx++;&lt;/pre&gt;&lt;/div&gt;" style="rounded=0;whiteSpace=wrap;html=1;fontColor=#FFFFFF;labelBackgroundColor=none;" vertex="1" parent="1"><mxGeometry x="-510" y="890" width="120" height="60" as="geometry"/></mxCell><mxCell id="215" style="edgeStyle=orthogonalEdgeStyle;rounded=0;orthogonalLoop=1;jettySize=auto;html=1;entryX=0.5;entryY=1;entryDx=0;entryDy=0;fontColor=#FFFFFF;" edge="1" parent="1" source="217" target="219"><mxGeometry relative="1" as="geometry"/></mxCell><mxCell id="216" style="edgeStyle=orthogonalEdgeStyle;rounded=0;orthogonalLoop=1;jettySize=auto;html=1;entryX=1;entryY=0.5;entryDx=0;entryDy=0;fontColor=#FFFFFF;" edge="1" parent="1" source="217" target="221"><mxGeometry relative="1" as="geometry"><Array as="points"><mxPoint x="-300" y="800"/><mxPoint x="-300" y="590"/></Array></mxGeometry></mxCell><mxCell id="217" value="int s1=i1;left;1" style="shape=hexagon;perimeter=hexagonPerimeter2;whiteSpace=wrap;html=1;fixedSize=1;fontColor=#FFFFFF;labelBackgroundColor=none;" vertex="1" parent="1"><mxGeometry x="-510" y="760" width="120" height="80" as="geometry"/></mxCell><mxCell id="218" style="edgeStyle=orthogonalEdgeStyle;rounded=0;orthogonalLoop=1;jettySize=auto;html=1;entryX=0;entryY=0.5;entryDx=0;entryDy=0;fontColor=#FFFFFF;" edge="1" parent="1" source="219" target="217"><mxGeometry relative="1" as="geometry"><Array as="points"><mxPoint x="-570" y="700"/><mxPoint x="-570" y="800"/></Array></mxGeometry></mxCell><mxCell id="219" value="&lt;div style=&quot;font-family: &amp;quot;JetBrains Mono&amp;quot;, monospace;&quot;&gt;&lt;pre&gt;arr[idx++] = part1[s1];&lt;/pre&gt;&lt;/div&gt;" style="rounded=0;whiteSpace=wrap;html=1;fontColor=#FFFFFF;labelBackgroundColor=none;" vertex="1" parent="1"><mxGeometry x="-535" y="670" width="170" height="60" as="geometry"/></mxCell><mxCell id="220" style="edgeStyle=orthogonalEdgeStyle;rounded=0;orthogonalLoop=1;jettySize=auto;html=1;entryX=0.5;entryY=1;entryDx=0;entryDy=0;fontColor=#FFFFFF;" edge="1" parent="1" source="221" target="224"><mxGeometry relative="1" as="geometry"/></mxCell><mxCell id="221" value="int s1=i1;left;1" style="shape=hexagon;perimeter=hexagonPerimeter2;whiteSpace=wrap;html=1;fixedSize=1;fontColor=#FFFFFF;labelBackgroundColor=none;" vertex="1" parent="1"><mxGeometry x="-510" y="550" width="120" height="80" as="geometry"/></mxCell><mxCell id="222" style="edgeStyle=orthogonalEdgeStyle;rounded=0;orthogonalLoop=1;jettySize=auto;html=1;entryX=0;entryY=0.5;entryDx=0;entryDy=0;fontColor=#FFFFFF;" edge="1" parent="1" source="224" target="221"><mxGeometry relative="1" as="geometry"><Array as="points"><mxPoint x="-640" y="470"/><mxPoint x="-640" y="590"/></Array></mxGeometry></mxCell><mxCell id="223" style="edgeStyle=orthogonalEdgeStyle;rounded=0;orthogonalLoop=1;jettySize=auto;html=1;entryX=0;entryY=0.5;entryDx=0;entryDy=0;fontColor=#FFFFFF;" edge="1" parent="1" source="224" target="195"><mxGeometry relative="1" as="geometry"><mxPoint x="-70" y="989.6000162760416" as="targetPoint"/><Array as="points"><mxPoint x="-90" y="470"/><mxPoint x="-90" y="1350"/></Array></mxGeometry></mxCell><mxCell id="224" value="&lt;div style=&quot;font-family: &amp;quot;JetBrains Mono&amp;quot;, monospace;&quot;&gt;&lt;pre&gt;&lt;div style=&quot;font-family: &amp;quot;JetBrains Mono&amp;quot;, monospace;&quot;&gt;&lt;pre&gt;arr[idx++] = part2[s2];&lt;/pre&gt;&lt;/div&gt;&lt;/pre&gt;&lt;/div&gt;" style="rounded=0;whiteSpace=wrap;html=1;fontColor=#FFFFFF;labelBackgroundColor=none;" vertex="1" parent="1"><mxGeometry x="-535" y="440" width="170" height="60" as="geometry"/></mxCell><mxCell id="225" value="у кращому - O(n*log n)&lt;br&gt;у середньому та гіршому - O(n*log n)" style="text;html=1;align=center;verticalAlign=middle;resizable=0;points=[];autosize=1;strokeColor=none;fillColor=none;fontColor=#FFFFFF;" vertex="1" parent="1"><mxGeometry x="230" y="160" width="230" height="40" as="geometry"/></mxCell><mxCell id="226" value="Ні" style="text;html=1;align=center;verticalAlign=middle;resizable=0;points=[];autosize=1;strokeColor=none;fillColor=none;fontColor=#FFFFFF;" vertex="1" parent="1"><mxGeometry x="-365" y="1328" width="30" height="30" as="geometry"/></mxCell><mxCell id="227" value="Так" style="text;html=1;align=center;verticalAlign=middle;resizable=0;points=[];autosize=1;strokeColor=none;fillColor=none;fontColor=#FFFFFF;" vertex="1" parent="1"><mxGeometry x="-560" y="1328" width="40" height="30" as="geometry"/></mxCell><mxCell id="228" value="Так" style="text;html=1;align=center;verticalAlign=middle;resizable=0;points=[];autosize=1;strokeColor=none;fillColor=none;fontColor=#FFFFFF;" vertex="1" parent="1"><mxGeometry x="-660" y="1120" width="40" height="30" as="geometry"/></mxCell><mxCell id="229" value="Ні" style="text;html=1;align=center;verticalAlign=middle;resizable=0;points=[];autosize=1;strokeColor=none;fillColor=none;fontColor=#FFFFFF;" vertex="1" parent="1"><mxGeometry x="-590" y="1170" width="30" height="30" as="geometry"/></mxCell><mxCell id="230" value="&lt;div style=&quot;font-family: &amp;quot;JetBrains Mono&amp;quot;, monospace;&quot;&gt;&lt;pre&gt;кінець&lt;/pre&gt;&lt;/div&gt;" style="ellipse;whiteSpace=wrap;html=1;fontColor=#FFFFFF;labelBackgroundColor=none;" vertex="1" parent="1"><mxGeometry x="55" y="1570" width="170" height="80" as="geometry"/></mxCell></root></mxGraphModel></diagram></mxfile>